# xmcd
#
# Track frame offsets: 
#        150
#        15377
#        28654
#        45681
#        67733
#        92035
#        118812
#        142889
#        160516
#        182868
#        197270
#        213022
#
# Disc length: 3164 seconds
#
# Revision: 0
# Processed by: cddbd v1.5PL3 Copyright (c) Steve Scherf et al.
# Submitted via: ExactAudioCopy v0.95a3
#
DISCID=8f0c5a0c
DTITLE=Matt Powell - The Money and The Grass
DYEAR=1999
DGENRE=Blues
TTITLE0=The Money and The Grass
TTITLE1=Rich Man
TTITLE2=Turtles and Rabbits
TTITLE3=Daisy Chain
TTITLE4=You Never Know
TTITLE5=Striped Sunshine
TTITLE6=What You Do To Me
TTITLE7=Jet Black Dreams
TTITLE8=Lover Man
TTITLE9=Ride
TTITLE10=Crow
TTITLE11=Turn The Page
EXTD=
EXTT0=
EXTT1=
EXTT2=
EXTT3=
EXTT4=
EXTT5=
EXTT6=
EXTT7=
EXTT8=
EXTT9=
EXTT10=
EXTT11=
PLAYORDER=
